mtllib octa.mtl
# octahedron
v 0.8000 0.0000 0.0000
v -0.8000 0.0000 0.0000
v 0.0000 0.8000 0.0000
v 0.0000 -0.8000 0.0000
v 0.0000 0.0000 0.8000
v 0.0000 0.0000 -0.8000
vt 0 0
vt 1 0
vt 0.5 1
vn 0.5774 0.5774 0.5774
usemtl octaMat
f 3/1/1 5/2/1 1/3/1
vn -0.5774 0.5774 0.5774
f 3/1/2 2/2/2 5/3/2
vn -0.5774 0.5774 -0.5774
f 3/1/3 6/2/3 2/3/3
vn 0.5774 0.5774 -0.5774
f 3/1/4 1/2/4 6/3/4
vn 0.5774 -0.5774 0.5774
f 4/1/5 1/2/5 5/3/5
vn -0.5774 -0.5774 0.5774
f 4/1/6 5/2/6 2/3/6
vn -0.5774 -0.5774 -0.5774
f 4/1/7 2/2/7 6/3/7
vn 0.5774 -0.5774 -0.5774
f 4/1/8 6/2/8 1/3/8
